<?xml version="1.0" encoding="UTF-8" standalone="no"?>
<!DOCTYPE svg PUBLIC "-//W3C//DTD SVG 1.1//EN"
 "http://www.w3.org/Graphics/SVG/1.1/DTD/svg11.dtd">
<!-- Generated by graphviz version 2.26.3 (20100126.1600)
 -->
<!-- Title: G Pages: 1 -->
<svg width="616pt" height="404pt"
 viewBox="0.00 0.00 616.00 404.00" xmlns="http://www.w3.org/2000/svg" xmlns:xlink="http://www.w3.org/1999/xlink">
<g id="graph1" class="graph" transform="scale(1 1) rotate(0) translate(4 400)">
<title>G</title>
<polygon fill="white" stroke="white" points="-4,5 -4,-400 613,-400 613,5 -4,5"/>
<g id="graph2" class="cluster"><title>cluster_Global</title>
<polyline fill="none" stroke="gray" points="98,-98 588,-98 "/>
<path fill="none" stroke="gray" d="M588,-98C594,-98 600,-104 600,-110"/>
<polyline fill="none" stroke="gray" points="600,-110 600,-376 "/>
<path fill="none" stroke="gray" d="M600,-376C600,-382 594,-388 588,-388"/>
<polyline fill="none" stroke="gray" points="588,-388 98,-388 "/>
<path fill="none" stroke="gray" d="M98,-388C92,-388 86,-382 86,-376"/>
<polyline fill="none" stroke="gray" points="86,-376 86,-110 "/>
<path fill="none" stroke="gray" d="M86,-110C86,-104 92,-98 98,-98"/>
<text text-anchor="middle" x="343" y="-374.1" font-family="Times Roman,serif" font-size="11.00" fill="gray">Global</text>
</g>
<!-- \\AllArraySortTest -->
<g id="node2" class="node"><title>\\AllArraySortTest</title>
<polygon fill="none" stroke="black" points="561,-304 437,-304 437,-268 561,-268 561,-304"/>
<text text-anchor="middle" x="499" y="-283.1" font-family="Courier,monospace" font-size="11.00">AllArraySortTest</text>
</g>
<!-- \\PHPUnit_Framework_TestSuite -->
<g id="node9" class="node"><title>\\PHPUnit_Framework_TestSuite</title>
<ellipse fill="none" stroke="black" cx="167" cy="-72" rx="166.877" ry="18.3848"/>
<text text-anchor="middle" x="167" y="-68.4" font-family="Times Roman,serif" font-size="14.00" fill="gray">\PHPUnit_Framework_TestSuite</text>
</g>
<!-- \\AllArraySortTest&#45;&gt;\\PHPUnit_Framework_TestSuite -->
<g id="edge3" class="edge"><title>\\AllArraySortTest&#45;&gt;\\PHPUnit_Framework_TestSuite</title>
<path fill="none" stroke="black" d="M436.094,-275.913C425.175,-271.989 414.588,-266.547 406,-259 345.897,-206.185 397.929,-142.113 334,-94 329.8,-90.8388 325.366,-88.0131 320.752,-85.4914"/>
<polygon fill="none" stroke="black" points="322.187,-82.2968 311.671,-81.0083 319.088,-88.5735 322.187,-82.2968"/>
</g>
<!-- \\ArraySortTest -->
<g id="node3" class="node"><title>\\ArraySortTest</title>
<polygon fill="none" stroke="black" points="551,-250 447,-250 447,-214 551,-214 551,-250"/>
<text text-anchor="middle" x="499" y="-229.1" font-family="Courier,monospace" font-size="11.00">ArraySortTest</text>
</g>
<!-- \\CakeTestCase -->
<g id="node11" class="node"><title>\\CakeTestCase</title>
<ellipse fill="none" stroke="black" cx="167" cy="-18" rx="82.0244" ry="18.3848"/>
<text text-anchor="middle" x="167" y="-14.4" font-family="Times Roman,serif" font-size="14.00" fill="gray">\CakeTestCase</text>
</g>
<!-- \\ArraySortTest&#45;&gt;\\CakeTestCase -->
<g id="edge5" class="edge"><title>\\ArraySortTest&#45;&gt;\\CakeTestCase</title>
<path fill="none" stroke="black" d="M446.81,-225.182C432.309,-221.206 417.423,-214.923 406,-205 347.131,-153.861 395.883,-92.4472 334,-45 312.61,-28.5996 285.093,-20.4882 258.592,-16.8303"/>
<polygon fill="none" stroke="black" points="258.841,-13.3355 248.5,-15.6385 258.02,-20.2872 258.841,-13.3355"/>
</g>
<!-- \\ArraySortTestObject -->
<g id="node4" class="node"><title>\\ArraySortTestObject</title>
<polygon fill="none" stroke="black" points="239,-358 95,-358 95,-322 239,-322 239,-358"/>
<text text-anchor="middle" x="167" y="-337.1" font-family="Courier,monospace" font-size="11.00">ArraySortTestObject</text>
</g>
<!-- \\ArraySortTestCachedObject -->
<g id="node5" class="node"><title>\\ArraySortTestCachedObject</title>
<polygon fill="none" stroke="black" points="591,-358 407,-358 407,-322 591,-322 591,-358"/>
<text text-anchor="middle" x="499" y="-337.1" font-family="Courier,monospace" font-size="11.00">ArraySortTestCachedObject</text>
</g>
<!-- \\ArraySortTestCachedObject&#45;&gt;\\ArraySortTestObject -->
<g id="edge7" class="edge"><title>\\ArraySortTestCachedObject&#45;&gt;\\ArraySortTestObject</title>
<path fill="none" stroke="black" d="M406.078,-340C357.02,-340 297.323,-340 249.855,-340"/>
<polygon fill="none" stroke="black" points="249.612,-336.5 239.612,-340 249.612,-343.5 249.612,-336.5"/>
</g>
<!-- \\ArraySortTestObject2 -->
<g id="node6" class="node"><title>\\ArraySortTestObject2</title>
<polygon fill="none" stroke="black" points="575,-196 423,-196 423,-160 575,-160 575,-196"/>
<text text-anchor="middle" x="499" y="-175.1" font-family="Courier,monospace" font-size="11.00">ArraySortTestObject2</text>
</g>
<!-- \\ArraySort -->
<g id="node7" class="node"><title>\\ArraySort</title>
<polygon fill="none" stroke="black" points="537,-142 461,-142 461,-106 537,-106 537,-142"/>
<text text-anchor="middle" x="499" y="-121.1" font-family="Courier,monospace" font-size="11.00">ArraySort</text>
</g>
</g>
</svg>
