<?xml version="1.0" encoding="UTF-8" standalone="no"?>
<!DOCTYPE svg PUBLIC "-//W3C//DTD SVG 1.1//EN"
 "http://www.w3.org/Graphics/SVG/1.1/DTD/svg11.dtd">
<!-- Generated by graphviz version 2.26.3 (20100126.1600)
 -->
<!-- Title: G Pages: 1 -->
<svg width="616pt" height="404pt"
 viewBox="0.00 0.00 616.00 404.00" xmlns="http://www.w3.org/2000/svg" xmlns:xlink="http://www.w3.org/1999/xlink">
<g id="graph1" class="graph" transform="scale(1 1) rotate(0) translate(4 400)">
<title>G</title>
<polygon fill="white" stroke="white" points="-4,5 -4,-400 613,-400 613,5 -4,5"/>
<g id="graph2" class="cluster"><title>cluster_Global</title>
<polyline fill="none" stroke="gray" points="98,-98 588,-98 "/>
<path fill="none" stroke="gray" d="M588,-98C594,-98 600,-104 600,-110"/>
<polyline fill="none" stroke="gray" points="600,-110 600,-376 "/>
<path fill="none" stroke="gray" d="M600,-376C600,-382 594,-388 588,-388"/>
<polyline fill="none" stroke="gray" points="588,-388 98,-388 "/>
<path fill="none" stroke="gray" d="M98,-388C92,-388 86,-382 86,-376"/>
<polyline fill="none" stroke="gray" points="86,-376 86,-110 "/>
<path fill="none" stroke="gray" d="M86,-110C86,-104 92,-98 98,-98"/>
<text text-anchor="middle" x="343" y="-374.1" font-family="Times Roman,serif" font-size="11.00" fill="gray">Global</text>
</g>
<!-- \\ArraySort -->
<g id="node2" class="node"><title>\\ArraySort</title>
<polygon fill="none" stroke="black" points="537,-358 461,-358 461,-322 537,-322 537,-358"/>
<text text-anchor="middle" x="499" y="-337.1" font-family="Courier,monospace" font-size="11.00">ArraySort</text>
</g>
<!-- \\ArraySortTest -->
<g id="node3" class="node"><title>\\ArraySortTest</title>
<polygon fill="none" stroke="black" points="551,-250 447,-250 447,-214 551,-214 551,-250"/>
<text text-anchor="middle" x="499" y="-229.1" font-family="Courier,monospace" font-size="11.00">ArraySortTest</text>
</g>
<!-- \\CakeTestCase -->
<g id="node9" class="node"><title>\\CakeTestCase</title>
<ellipse fill="none" stroke="black" cx="167" cy="-72" rx="82.0244" ry="18.3848"/>
<text text-anchor="middle" x="167" y="-68.4" font-family="Times Roman,serif" font-size="14.00" fill="gray">\CakeTestCase</text>
</g>
<!-- \\ArraySortTest&#45;&gt;\\CakeTestCase -->
<g id="edge3" class="edge"><title>\\ArraySortTest&#45;&gt;\\CakeTestCase</title>
<path fill="none" stroke="black" d="M446.757,-223.777C432.577,-219.771 417.876,-213.823 406,-205 358.798,-169.932 383.722,-125.393 334,-94 311.734,-79.9415 284.47,-73.0511 258.478,-70.0255"/>
<polygon fill="none" stroke="black" points="258.504,-66.5112 248.21,-69.0171 257.82,-73.4777 258.504,-66.5112"/>
</g>
<!-- \\ArraySortTestObject -->
<g id="node4" class="node"><title>\\ArraySortTestObject</title>
<polygon fill="none" stroke="black" points="239,-304 95,-304 95,-268 239,-268 239,-304"/>
<text text-anchor="middle" x="167" y="-283.1" font-family="Courier,monospace" font-size="11.00">ArraySortTestObject</text>
</g>
<!-- \\ArraySortTestCachedObject -->
<g id="node5" class="node"><title>\\ArraySortTestCachedObject</title>
<polygon fill="none" stroke="black" points="591,-304 407,-304 407,-268 591,-268 591,-304"/>
<text text-anchor="middle" x="499" y="-283.1" font-family="Courier,monospace" font-size="11.00">ArraySortTestCachedObject</text>
</g>
<!-- \\ArraySortTestCachedObject&#45;&gt;\\ArraySortTestObject -->
<g id="edge5" class="edge"><title>\\ArraySortTestCachedObject&#45;&gt;\\ArraySortTestObject</title>
<path fill="none" stroke="black" d="M406.078,-286C357.02,-286 297.323,-286 249.855,-286"/>
<polygon fill="none" stroke="black" points="249.612,-282.5 239.612,-286 249.612,-289.5 249.612,-282.5"/>
</g>
<!-- \\ArraySortTestObject2 -->
<g id="node6" class="node"><title>\\ArraySortTestObject2</title>
<polygon fill="none" stroke="black" points="575,-196 423,-196 423,-160 575,-160 575,-196"/>
<text text-anchor="middle" x="499" y="-175.1" font-family="Courier,monospace" font-size="11.00">ArraySortTestObject2</text>
</g>
<!-- \\AllArraySortTest -->
<g id="node7" class="node"><title>\\AllArraySortTest</title>
<polygon fill="none" stroke="black" points="561,-142 437,-142 437,-106 561,-106 561,-142"/>
<text text-anchor="middle" x="499" y="-121.1" font-family="Courier,monospace" font-size="11.00">AllArraySortTest</text>
</g>
<!-- \\PHPUnit_Framework_TestSuite -->
<g id="node12" class="node"><title>\\PHPUnit_Framework_TestSuite</title>
<ellipse fill="none" stroke="black" cx="167" cy="-18" rx="166.877" ry="18.3848"/>
<text text-anchor="middle" x="167" y="-14.4" font-family="Times Roman,serif" font-size="14.00" fill="gray">\PHPUnit_Framework_TestSuite</text>
</g>
<!-- \\AllArraySortTest&#45;&gt;\\PHPUnit_Framework_TestSuite -->
<g id="edge7" class="edge"><title>\\AllArraySortTest&#45;&gt;\\PHPUnit_Framework_TestSuite</title>
<path fill="none" stroke="black" d="M468.158,-105.918C435.806,-87.7549 382.949,-60.325 334,-45 319.515,-40.4651 304.073,-36.6609 288.65,-33.477"/>
<polygon fill="none" stroke="black" points="289.017,-29.9819 278.528,-31.473 287.658,-36.8486 289.017,-29.9819"/>
</g>
</g>
</svg>
